<?xml version="1.0" encoding="UTF-8" standalone="no"?>
<!-- Created with Inkscape (http://www.inkscape.org/) -->

<svg
   width="418.69189"
   height="512"
   viewBox="0 0 418.69189 512"
   version="1.1"
   id="svg1"
   xml:space="preserve"
   xmlns="http://www.w3.org/2000/svg"
   xmlns:svg="http://www.w3.org/2000/svg"><defs
     id="defs1" /><g
     id="layer1"
     transform="translate(-256,-256)"><path
       id="path309"
       style="opacity:1;fill:#a80030;fill-opacity:1;stroke-width:12.9441;stroke-linecap:round"
       d="m 512,256 c -141.38442,10e-4 -255.99885,114.61558 -256,256 0.19649,52.76115 16.69025,104.17292 47.22461,147.20117 0.13777,0.18378 0.27579,0.36737 0.41406,0.55078 1.24403,1.70503 2.5091,3.39462 3.79492,5.06836 C 326.33884,690.21245 393.65623,767.62165 512,768 c 29.6074,-5.8e-4 53.6088,-24.00198 53.60938,-53.60938 C 564.70401,685.9684 542.41872,660.89595 512,660.7793 c -47.68281,-0.0749 -92.44074,-22.99966 -120.36523,-61.65039 0,0 -5.30933,-5.61239 -8.41993,-8.09766 -7.76148,-6.7004 -17.28165,-11.03447 -27.43164,-12.48828 -2.42097,-0.35673 -4.86353,-0.54728 -7.31054,-0.57031 v -0.0156 h -0.53907 c 0.15302,0.005 0.30602,0.0111 0.45899,0.0176 -1.37513,0.007 -7.23242,-0.0176 -7.23242,-0.0176 v -0.002 c -2.08283,0.0588 -4.16202,-0.20879 -6.16211,-0.79297 -10.55503,-3.74257 -12.29252,-13.71979 -14.48243,-23.26758 -3.197,-13.7415 -4.90543,-27.78729 -5.0957,-41.89453 C 315.42076,403.43221 403.43217,315.42076 512,315.41992 c 76.41812,0.56682 110.05629,40.64131 129.44727,42.9961 0.0331,0.004 0.0665,0.0117 0.0996,0.0156 12.7575,1.45895 22.83933,-5.39738 27.76367,-12.42578 -0.0812,0.11843 -0.16321,0.23622 -0.2461,0.35352 0.11001,-0.15146 0.21892,-0.30319 0.32617,-0.45704 0.54157,-0.79267 1.0286,-1.62077 1.5293,-2.43945 3.73623,-6.67817 3.98605,-13.10405 3.67578,-16.88867 l -0.004,-0.0332 c -0.0463,-0.55631 -0.11203,-1.10999 -0.18946,-1.66211 -0.0198,-0.14208 -0.0406,-0.28399 -0.0625,-0.42579 -1.3987,-10.72908 -8.29786,-16.16293 -16.6582,-22.36523 C 614.94514,272.25388 564.11991,256.17457 512,256 Z m 0,143.7793 C 466.91001,399.78223 399.93065,435.92033 399.7793,512 399.77942,573.97773 450.02227,624.22058 512,624.2207 587.73192,624.0712 624.14507,557.62385 624.2207,512 624.22109,495.59094 610.91883,482.28868 594.50977,482.28906 578.10147,482.28975 564.80039,495.5917 564.80078,512 564.80097,541.16115 541.16115,564.80097 512,564.80078 482.83885,564.80097 459.19903,541.16115 459.19922,512 459.19903,482.83885 482.83885,459.19903 512,459.19922 c 16.4083,3.9e-4 29.71025,-13.30069 29.71094,-29.70899 C 541.71132,413.08117 528.40906,399.77891 512,399.7793 Z m 0,92.25 A 19.969999,19.969999 0 0 0 492.0293,512 19.969999,19.969999 0 0 0 512,531.9707 19.969999,19.969999 0 0 0 531.9707,512 19.969999,19.969999 0 0 0 512,492.0293 Z m 0,206.36132 c 8.83656,0 16,7.16344 16,16 0,8.83656 -7.16344,16 -16,16 -8.83656,0 -16,-7.16343 -16,-16 0,-8.83655 7.16344,-16 16,-16 z" /></g></svg>
